<?xml version="1.0" standalone="no"?>
<!DOCTYPE svg PUBLIC "-//W3C//DTD SVG 20010904//EN"
 "http://www.w3.org/TR/2001/REC-SVG-20010904/DTD/svg10.dtd">
<svg version="1.0" xmlns="http://www.w3.org/2000/svg"
 width="320.000000pt" height="320.000000pt" viewBox="0 0 320.000000 320.000000"
 preserveAspectRatio="xMidYMid meet">
<metadata>
Created by potrace 1.14, written by Peter Selinger 2001-2017
</metadata>
<g transform="translate(0.000000,320.000000) scale(0.100000,-0.100000)"
fill="#000000" stroke="none">
<path d="M15 3178 c-3 -7 -4 -722 -3 -1588 l3 -1575 407 -3 408 -2 0 30 0 30
-380 0 -380 0 0 1530 0 1530 1530 0 1530 0 0 -1530 0 -1530 -1088 0 -1088 0
-11 -30 -11 -30 1126 2 1127 3 0 1585 0 1585 -1583 3 c-1261 2 -1584 0 -1587
-10z"/>
<path d="M483 3002 c-11 -15 -33 -52 -47 -81 -41 -79 -175 -207 -281 -267 -30
-17 -58 -33 -61 -36 -10 -10 31 -65 45 -60 8 3 11 0 7 -7 -14 -22 14 -10 44
19 32 31 47 39 34 18 -11 -17 126 94 160 129 109 116 127 148 131 234 3 74 -5
87 -32 51z"/>
<path d="M630 2928 c0 -23 108 -88 145 -88 19 0 39 61 23 72 -26 16 -168 30
-168 16z"/>
<path d="M490 2704 c0 -7 8 -18 18 -23 10 -5 40 -30 68 -55 27 -25 54 -46 60
-46 11 0 54 42 54 52 0 11 -79 70 -98 73 -9 2 -17 4 -17 5 0 1 -19 3 -42 5
-31 2 -43 -1 -43 -11z"/>
<path d="M1999 2670 c-9 -5 -104 -15 -210 -21 -107 -7 -196 -15 -199 -19 -3
-4 -45 -7 -95 -6 -92 1 -280 -10 -325 -19 -33 -7 -100 -38 -100 -47 0 -4 -16
-10 -35 -14 -21 -4 -35 -12 -35 -21 0 -12 12 -14 63 -10 34 3 172 10 307 16
135 6 324 15 420 20 96 5 176 8 177 7 3 -2 -10 -145 -28 -306 -9 -89 -9 -196
2 -465 0 -11 3 -35 5 -53 4 -29 7 -31 26 -21 11 6 36 9 54 7 l34 -4 0 71 c0
42 -4 65 -9 57 -6 -10 -10 -8 -14 10 -4 12 -6 32 -6 43 1 13 4 10 9 -10 5 -18
9 52 11 170 4 269 5 274 13 325 4 25 8 77 10 115 2 39 6 84 10 100 6 23 3 37
-14 58 -22 28 -43 33 -71 17z m-336 -47 c-7 -2 -21 -2 -30 0 -10 3 -4 5 12 5
17 0 24 -2 18 -5z m368 -472 c1 -28 -1 -55 -5 -58 -3 -3 -6 22 -6 57 0 75 10
76 11 1z m6 -193 c-3 -7 -5 -2 -5 12 0 14 2 19 5 13 2 -7 2 -19 0 -25z"/>
<path d="M300 2476 c0 -7 7 -19 15 -26 8 -7 15 -17 15 -22 0 -20 86 -128 103
-128 10 0 46 41 47 53 0 14 -93 98 -104 94 -6 -2 -19 7 -29 20 -20 25 -47 31
-47 9z"/>
<path d="M902 2481 c-10 -6 -10 -24 -1 -87 6 -43 13 -83 16 -87 11 -18 23
-225 27 -442 2 -121 6 -231 9 -245 3 -14 6 -28 6 -32 2 -13 66 -9 84 5 14 10
15 18 7 47 -5 19 -10 82 -11 140 -1 58 -4 116 -8 129 -3 13 -3 58 0 100 4 51
2 91 -7 121 -7 25 -13 70 -12 100 0 63 -38 170 -70 195 -7 6 -16 22 -20 37 -5
19 -11 25 -20 19z"/>
<path d="M1310 2331 c0 -5 -12 -12 -27 -16 -31 -7 -73 -42 -73 -60 0 -17 33
-45 53 -45 23 0 57 49 55 79 -1 15 1 32 6 39 4 7 2 12 -3 12 -6 0 -11 -4 -11
-9z"/>
<path d="M1642 2279 c-36 -36 -40 -54 -14 -68 21 -11 42 3 42 26 0 8 7 27 15
43 21 41 -1 40 -43 -1z"/>
<path d="M1636 1895 c-22 -34 -103 -56 -198 -54 -75 1 -84 4 -109 28 -34 34
-55 29 -31 -7 65 -102 207 -133 328 -72 33 16 70 40 82 53 20 21 20 25 7 44
-22 31 -61 35 -79 8z"/>
<path d="M1713 1639 c-10 -10 -151 -14 -160 -5 -3 2 -30 -2 -61 -10 -31 -7
-84 -13 -117 -14 -90 0 -132 -10 -161 -37 -14 -13 -39 -27 -55 -30 -30 -6 -41
-33 -13 -33 8 0 57 5 108 11 51 7 106 8 122 4 28 -7 27 -8 -21 -20 -90 -21
-260 -115 -289 -160 -19 -29 -20 -39 -3 -29 7 4 9 3 4 -2 -5 -5 -13 -9 -18 -9
-17 0 -89 -107 -99 -148 -6 -23 -33 -96 -60 -162 -62 -154 -83 -222 -74 -236
5 -8 3 -9 -6 -4 -10 6 -11 2 -7 -17 4 -16 -4 -56 -24 -112 -19 -55 -30 -105
-30 -139 1 -29 -2 -91 -5 -139 -8 -103 -1 -140 23 -131 12 5 14 3 8 -8 -5 -8
-4 -11 1 -6 5 5 9 14 9 20 2 24 17 67 25 67 8 0 14 39 29 185 5 44 17 107 26
140 9 33 20 74 24 90 13 50 71 203 108 283 19 43 44 102 55 132 56 149 206
256 394 281 122 16 165 9 267 -42 73 -36 106 -61 191 -145 119 -118 198 -243
241 -384 15 -47 33 -102 41 -123 8 -21 28 -93 45 -160 17 -67 38 -138 46 -157
8 -19 15 -49 15 -67 0 -29 2 -31 24 -23 65 25 84 40 84 68 0 16 -4 32 -8 37
-5 6 -14 28 -20 50 -6 22 -18 63 -27 90 -9 28 -17 59 -19 70 -5 30 -17 87 -23
109 -5 17 -1 18 35 13 51 -9 52 -8 52 209 l0 172 30 12 c40 17 95 8 167 -25
72 -33 184 -44 245 -24 50 16 134 112 144 164 9 52 -1 236 -15 266 -8 15 -29
31 -55 41 -50 18 -82 9 -144 -42 -37 -30 -66 -38 -76 -21 -4 5 -41 28 -83 51
-68 38 -83 42 -147 43 -72 1 -91 -6 -178 -61 -28 -17 -28 -17 -34 -167 -7
-159 -7 -169 -4 -255 1 -30 -3 -68 -9 -84 l-12 -29 -36 59 c-20 32 -47 78 -60
101 -14 24 -75 93 -136 154 -103 101 -121 115 -227 167 l-115 57 -120 -1
c-198 -1 -58 13 208 22 l237 7 0 37 c0 20 -5 41 -12 48 -16 16 -229 17 -245 1z
m70 -6 c-7 -2 -21 -2 -30 0 -10 3 -4 5 12 5 17 0 24 -2 18 -5z m-263 -123 c-8
-5 -19 -10 -25 -10 -5 0 -3 5 5 10 8 5 20 10 25 10 6 0 3 -5 -5 -10z m95 0
c-3 -5 -14 -10 -23 -10 -15 0 -15 2 -2 10 20 13 33 13 25 0z m42 -6 c-3 -3
-12 -4 -19 -1 -8 3 -5 6 6 6 11 1 17 -2 13 -5z m-267 -16 c-14 -5 -44 -18 -68
-29 -23 -10 -46 -19 -50 -19 -15 0 65 44 93 51 43 10 54 9 25 -3z m1021 -12
c-21 -12 -18 -12 31 -8 46 3 60 0 92 -22 22 -14 43 -26 48 -26 6 0 19 -11 29
-24 39 -50 118 -46 198 9 28 19 55 35 61 35 7 0 9 -33 7 -95 -4 -93 -5 -97
-40 -135 -33 -38 -39 -40 -91 -40 -37 0 -78 9 -118 25 -35 14 -68 23 -76 20
-7 -2 -11 -1 -8 4 7 10 -129 3 -168 -10 -56 -18 -56 -18 -51 97 l4 106 31 20
c18 10 30 22 26 25 -9 9 14 33 33 33 11 -1 9 -5 -8 -14z m86 8 c-3 -3 -12 -4
-19 -1 -8 3 -5 6 6 6 11 1 17 -2 13 -5z m34 -11 c13 -16 12 -17 -3 -4 -10 7
-18 15 -18 17 0 8 8 3 21 -13z m94 -50 c7 -9 32 -19 56 -23 l44 -7 -41 -2
c-31 -1 -48 5 -68 24 -15 14 -22 25 -15 25 6 0 17 -7 24 -17z m-614 -190 c13
-16 12 -17 -3 -4 -17 13 -22 21 -14 21 2 0 10 -8 17 -17z"/>
<path d="M509 1281 c-15 -11 -32 -34 -39 -51 -8 -19 -20 -30 -32 -30 -13 0
-17 -4 -12 -12 4 -7 -2 -4 -14 6 -26 22 -30 35 -5 15 11 -9 14 -10 9 -2 -4 7
-16 18 -28 24 -16 8 -19 8 -13 -1 6 -9 2 -9 -14 0 -12 6 -19 15 -16 21 4 5 3
9 -2 8 -4 -1 -21 1 -36 6 -22 6 -33 3 -53 -16 -41 -38 -44 -50 -24 -107 11
-30 21 -68 24 -86 6 -36 66 -132 97 -154 10 -7 19 -10 20 -5 0 4 4 -2 9 -14 5
-12 20 -29 34 -38 24 -16 27 -16 63 10 31 22 33 22 11 3 -16 -13 -28 -32 -28
-41 0 -14 12 -9 55 25 32 25 53 48 50 56 -3 7 -1 11 4 8 7 -5 91 50 91 60 0 3
-7 19 -15 37 -14 29 -14 30 0 13 8 -11 15 -23 15 -28 0 -15 19 -8 41 15 57 59
66 145 22 206 -57 76 -164 112 -214 72z m120 -127 c12 -15 21 -32 21 -38 0
-16 -214 -196 -232 -196 -7 0 -67 122 -88 177 -6 17 -10 40 -8 50 3 15 9 12
42 -19 22 -21 43 -38 49 -38 5 0 36 12 69 27 40 17 64 36 74 55 12 23 18 27
34 18 10 -5 28 -22 39 -36z m-164 18 c-3 -3 -11 0 -18 7 -9 10 -8 11 6 5 10
-3 15 -9 12 -12z"/>
<path d="M2365 180 c-3 -6 1 -7 9 -4 18 7 21 14 7 14 -6 0 -13 -4 -16 -10z"/>
</g>
</svg>
